<svg width="140" height="100" viewBox="0 0 140 100" fill="none" xmlns="http://www.w3.org/2000/svg">
<g clip-path="url(#clip0_19838_26736)">
<path d="M98.6981 65.9375C98.6951 64.9325 98.9876 63.9492 99.5388 63.112C100.09 62.2748 100.875 61.6215 101.794 61.2347C102.714 60.8479 103.726 60.7451 104.704 60.9393C105.681 61.1334 106.58 61.6159 107.285 62.3254C107.991 63.035 108.472 63.9398 108.667 64.9253C108.863 65.9108 108.764 66.9326 108.383 67.8615C108.003 68.7903 107.358 69.5843 106.53 70.143C105.701 70.7017 104.728 70.9999 103.732 70.9999C103.07 71.0072 102.413 70.8813 101.801 70.6296C101.188 70.378 100.631 70.0056 100.162 69.5343C99.6933 69.063 99.3225 68.5021 99.0712 67.8846C98.8199 67.267 98.693 66.6051 98.6981 65.9375Z" fill="#E63312"/>
<path d="M104.49 65.1759V63.3986H102.978V65.1759H101.217V66.7011H102.978V68.4785H104.49V66.7011H106.252V65.1759H104.49Z" fill="white"/>
<path d="M29.2878 41.0038C29.2878 43.2085 27.3786 44.1558 25.3357 44.1558C23.4352 44.1558 21.9911 43.4273 21.25 41.8794L23.7198 40.4592C23.968 41.1895 24.4991 41.5905 25.3357 41.5905C26.0196 41.5905 26.3615 41.3803 26.3615 40.9968C26.3615 39.9462 21.6874 40.4978 21.6874 37.1812C21.6874 35.0782 23.4352 34.0275 25.4156 34.0275C26.9533 34.0275 28.3228 34.7174 29.1194 36.078L26.6895 37.4018C26.424 36.9028 26.0439 36.5578 25.4173 36.5578C24.9226 36.5578 24.6189 36.7504 24.6189 37.0954C24.6137 38.1863 29.2878 37.4579 29.2878 41.0038Z" fill="white"/>
<path d="M43.987 34.2937L40.9409 43.8791H38.2819L36.7615 38.7554L35.2411 43.8791H32.5803L29.5412 34.2937H32.5803L33.948 39.4314L35.4303 34.2937H38.0858L39.5681 39.4314L40.9357 34.2937H43.987Z" fill="white"/>
<path d="M44.5633 31.7248C44.5774 31.2766 44.7638 30.8516 45.083 30.5396C45.4023 30.2277 45.8293 30.0532 46.2737 30.0532C46.7182 30.0532 47.1452 30.2277 47.4644 30.5396C47.7836 30.8516 47.9701 31.2766 47.9842 31.7248C47.9915 31.9561 47.9527 32.1864 47.87 32.4022C47.7873 32.618 47.6625 32.8149 47.503 32.9811C47.3434 33.1473 47.1524 33.2794 46.9412 33.3696C46.73 33.4599 46.5031 33.5064 46.2737 33.5064C46.0444 33.5064 45.8174 33.4599 45.6063 33.3696C45.3951 33.2794 45.2041 33.1473 45.0445 32.9811C44.885 32.8149 44.7601 32.618 44.6775 32.4022C44.5948 32.1864 44.5559 31.9561 44.5633 31.7248ZM44.8548 34.2937H47.7048V43.8791H44.8548V34.2937Z" fill="white"/>
<path d="M56.8933 41.0038C56.8933 43.2085 54.9945 44.1558 52.9412 44.1558C51.0424 44.1558 49.5984 43.4273 48.8572 41.8794L51.3271 40.4592C51.5735 41.1895 52.1064 41.5905 52.9412 41.5905C53.6251 41.5905 53.967 41.3803 53.967 40.9968C53.967 39.9462 49.2929 40.4978 49.2929 37.1812C49.2929 35.0782 51.0424 34.0275 53.0124 34.0275C54.5519 34.0275 55.9196 34.7174 56.718 36.078L54.2881 37.4018C54.0208 36.9028 53.6407 36.5578 53.0141 36.5578C52.5195 36.5578 52.2157 36.7504 52.2157 37.0954C52.2192 38.1863 56.8933 37.4579 56.8933 41.0038Z" fill="white"/>
<path d="M65.6184 41.0038C65.6184 43.2085 63.7179 44.1558 61.6663 44.1558C59.7571 44.1558 58.3218 43.4273 57.5806 41.8794L60.0505 40.4592C60.2969 41.1895 60.8298 41.5905 61.6663 41.5905C62.3502 41.5905 62.6921 41.3803 62.6921 40.9968C62.6921 39.9462 58.018 40.4978 58.018 37.1812C58.018 35.0782 59.7658 34.0275 61.741 34.0275C63.2805 34.0275 64.6482 34.7174 65.4466 36.078L63.0167 37.4018C62.7511 36.9028 62.371 36.5578 61.7427 36.5578C61.2498 36.5578 60.9443 36.7504 60.9443 37.0954C60.9426 38.1863 65.6184 37.4579 65.6184 41.0038Z" fill="white"/>
<path d="M31.6639 61.1466V70.7303H28.8122V69.8303C28.1857 70.5587 27.2501 71 25.9814 71C23.4925 71 21.4409 68.7954 21.4409 65.9376C21.4409 63.0798 23.4925 60.8769 25.9814 60.8769C27.2536 60.8769 28.1857 61.3182 28.8122 62.0467V61.1466H31.6639ZM28.8122 65.9376C28.8122 64.5 27.8628 63.5999 26.5559 63.5999C25.2489 63.5999 24.2995 64.5 24.2995 65.9376C24.2995 67.3752 25.2489 68.2771 26.5559 68.2771C27.8628 68.2771 28.8122 67.377 28.8122 65.9376Z" fill="white"/>
<path d="M40.908 67.855C40.908 70.0597 38.9988 71.007 36.9559 71.007C35.0554 71.007 33.6113 70.2785 32.8702 68.7306L35.34 67.2982C35.5865 68.0266 36.1193 68.4294 36.9559 68.4294C37.6397 68.4294 37.9817 68.2175 37.9817 67.834C37.9817 66.7834 33.3076 67.3367 33.3076 64.0202C33.3076 61.9294 35.0554 60.8682 37.0305 60.8682C38.5701 60.8682 39.9377 61.5581 40.7361 62.9205L38.3062 64.2425C38.0407 63.7435 37.6606 63.3985 37.0323 63.3985C36.5393 63.3985 36.2339 63.5911 36.2339 63.9361C36.2321 65.0375 40.908 64.3091 40.908 67.855Z" fill="white"/>
<path d="M49.6313 67.855C49.6313 70.0597 47.7221 71.007 45.6793 71.007C43.7787 71.007 42.3347 70.2785 41.5936 68.7306L44.0634 67.3122C44.3116 68.0407 44.8427 68.4434 45.6793 68.4434C46.3631 68.4434 46.705 68.2315 46.705 67.848C46.705 66.7974 42.0309 67.3507 42.0309 64.0342C42.0309 61.9434 43.7787 60.8822 45.7556 60.8822C47.2934 60.8822 48.6629 61.5721 49.4595 62.9345L47.0296 64.2566C46.7641 63.7575 46.3839 63.4125 45.7574 63.4125C45.2627 63.4125 44.959 63.6051 44.959 63.9501C44.9572 65.0375 49.6313 64.3091 49.6313 67.855Z" fill="white"/>
<path d="M50.3603 65.9376C50.3572 64.9326 50.6498 63.9492 51.201 63.112C51.7522 62.2749 52.5372 61.6215 53.4567 61.2348C54.3761 60.848 55.3887 60.7452 56.3661 60.9393C57.3435 61.1335 58.2418 61.6159 58.9473 62.3255C59.6528 63.035 60.1337 63.9398 60.3292 64.9253C60.5247 65.9108 60.4259 66.9327 60.0454 67.8615C59.6649 68.7903 59.0198 69.5844 58.1917 70.1431C57.3637 70.7018 56.3899 71 55.3937 71C54.732 71.0072 54.0756 70.8813 53.4627 70.6297C52.8498 70.378 52.2928 70.0057 51.8241 69.5343C51.3555 69.063 50.9847 68.5022 50.7334 67.8846C50.482 67.2671 50.3552 66.6052 50.3603 65.9376ZM57.5824 65.9376C57.5824 64.577 56.6312 63.6769 55.3972 63.6769C54.1631 63.6769 53.212 64.577 53.212 65.9376C53.212 67.2982 54.1614 68.2 55.3972 68.2C56.633 68.2 57.5824 67.2982 57.5824 65.9376Z" fill="white"/>
<path d="M61.2758 65.9376C61.2758 63.0816 63.4228 60.8769 66.3092 60.8769C67.176 60.8653 68.0303 61.0862 68.7848 61.5169C69.5392 61.9476 70.1668 62.5728 70.6032 63.3285L68.1125 64.7889C67.7897 64.1165 67.1059 63.7155 66.2693 63.7155C65.0352 63.7155 64.1223 64.6155 64.1223 65.9376C64.1223 67.2597 65.0352 68.1615 66.2693 68.1615C67.1059 68.1615 67.8088 67.7587 68.1125 67.0881L70.6049 68.524C70.175 69.2871 69.5495 69.9194 68.794 70.3548C68.0385 70.7901 67.1809 71.0124 66.3109 70.9982C63.4263 71 61.2758 68.7954 61.2758 65.9376Z" fill="white"/>
<path d="M74.3435 61.1466H71.4936V70.7321H74.3435V61.1466Z" fill="white"/>
<path d="M85.8752 61.1466V70.7303H83.0235V69.8303C82.3969 70.5587 81.4614 71 80.1927 71C77.7038 71 75.6522 68.7954 75.6522 65.9376C75.6522 63.0798 77.7038 60.8769 80.1927 60.8769C81.4666 60.8769 82.3969 61.3182 83.0235 62.0467V61.1466H85.8752ZM83.0235 65.9376C83.0235 64.5 82.0741 63.5999 80.7672 63.5999C79.4602 63.5999 78.5108 64.5 78.5108 65.9376C78.5108 67.3752 79.4602 68.2771 80.7672 68.2771C82.0741 68.2771 83.0235 67.377 83.0235 65.9376Z" fill="white"/>
<path d="M91.2748 63.9063V67.2982C91.2748 68.123 91.9777 68.1983 93.2326 68.123V70.7303C89.5079 71.1138 88.4197 69.9826 88.4197 67.2982V63.9063H86.8992V61.1466H88.4197V60.7386L91.2696 59.8771V61.1466H93.2274V63.9063H91.2748Z" fill="white"/>
<path d="M97.4589 61.1466H94.609V70.7321H97.4589V61.1466Z" fill="white"/>
<path d="M119.25 64.8467V70.7303H116.398V65.2669C116.398 64.0797 115.657 63.5158 114.746 63.5158C113.705 63.5158 112.979 64.1287 112.979 65.4911V70.7303H110.129V61.1466H112.979V62.0449C113.5 61.3445 114.442 60.8752 115.695 60.8752C117.615 60.8769 119.25 62.2568 119.25 64.8467Z" fill="white"/>
<path d="M29.2878 54.4364C29.2878 56.6411 27.3786 57.5796 25.3357 57.5796C23.4352 57.5796 21.9911 56.8512 21.25 55.3032L23.7198 53.8831C23.968 54.6116 24.4991 55.0143 25.3357 55.0143C26.0196 55.0143 26.3615 54.8042 26.3615 54.4207C26.3615 53.37 21.6874 53.9216 21.6874 50.6051C21.6874 48.516 23.4352 47.4531 25.4121 47.4531C26.9499 47.4531 28.3193 48.143 29.116 49.5036L26.6861 50.8274C26.4205 50.3284 26.0404 49.9834 25.4138 49.9834C24.9192 49.9834 24.6154 50.1743 24.6154 50.521C24.6137 51.6189 29.2878 50.8905 29.2878 54.4364Z" fill="white"/>
<path d="M34.2379 50.4877V53.8796C34.2379 54.7044 34.9321 54.7814 36.1939 54.7044V57.317C32.471 57.7005 31.3879 56.5693 31.3879 53.8848V50.4877H29.8675V47.7263H31.3879V47.32L34.2379 46.4602V47.7298H36.1939V50.4877H34.2379Z" fill="white"/>
<path d="M47.3872 47.7263V57.317H44.5372V56.4152C43.9089 57.1454 42.9751 57.5849 41.7046 57.5849C39.2157 57.5849 37.1642 55.3803 37.1642 52.5243C37.1642 49.6682 39.2157 47.4636 41.7046 47.4636C42.9786 47.4636 43.9089 47.9049 44.5372 48.6333V47.7315L47.3872 47.7263ZM44.5372 52.519C44.5372 51.0814 43.5861 50.1795 42.2809 50.1795C40.9757 50.1795 40.0245 51.0814 40.0245 52.519C40.0245 53.9566 40.9739 54.8585 42.2809 54.8585C43.5878 54.8585 44.5372 53.9566 44.5372 52.519Z" fill="white"/>
<path d="M54.788 47.5354V50.7942C53.6095 50.6016 51.938 51.0814 51.938 52.9795V57.317H49.0881V47.7263H51.938V49.4371C52.3181 48.1483 53.5904 47.5354 54.788 47.5354Z" fill="white"/>
<path d="M60.1876 50.4877V53.8796C60.1876 54.7044 60.8818 54.7814 62.1454 54.7044V57.317C58.4207 57.7005 57.3376 56.5693 57.3376 53.8848V50.4877H55.8172V47.7263H57.3376V47.32L60.1876 46.4602V47.7298H62.1454V50.4877H60.1876Z" fill="white"/>
<path d="M72.6426 47.7263V57.317H69.7927V56.4152C69.2806 57.1261 68.3295 57.5849 67.0764 57.5849C65.1567 57.5849 63.5218 56.205 63.5218 53.6169V47.7263H66.3769V53.1897C66.3769 54.3787 67.118 54.9408 68.031 54.9408C69.0724 54.9408 69.7979 54.3261 69.7979 52.9655V47.7263H72.6426Z" fill="white"/>
<path d="M84.5665 52.519C84.5665 55.375 82.5132 57.5796 80.0243 57.5796C78.7521 57.5796 77.82 57.1401 77.1935 56.4099V61.1466L74.3435 61.1466V47.7263H77.1935V48.6281C77.82 47.8996 78.7556 47.4584 80.0243 47.4584C82.5184 47.4584 84.5665 49.663 84.5665 52.519ZM81.7166 52.519C81.7166 51.0814 80.7654 50.1795 79.4602 50.1795C78.155 50.1795 77.2039 51.0814 77.2039 52.519C77.2039 53.9566 78.155 54.8585 79.4602 54.8585C80.7654 54.8585 81.7166 53.9566 81.7166 52.519Z" fill="white"/>
</g>
<defs>
<clipPath id="clip0_19838_26736">
<rect width="98" height="41" fill="white" transform="translate(21.25 30)"/>
</clipPath>
</defs>
</svg>
