<svg width="141" height="100" viewBox="0 0 141 100" fill="none" xmlns="http://www.w3.org/2000/svg">
<path d="M27.1777 42.2029L30.2133 42.2029L30.2133 44.9244L32.4008 44.9244L32.4008 47.0926L30.2133 47.0926L30.2133 51.5636C30.2133 52.5056 30.5109 52.6851 31.5228 52.6851L32.4008 52.6851L32.4008 54.8982L30.4663 54.8982C28.011 54.8982 27.1777 54.4197 27.1777 52.1019L27.1777 47.0926L25.6152 47.0926L25.6152 44.9244L27.1777 44.9244L27.1777 42.2029ZM42.6981 51.7879C41.8053 54.1505 39.722 55.1673 37.7429 55.1673C34.5138 55.1673 32.2966 53.2085 32.2966 49.8739C32.2966 46.6739 34.7072 44.6552 37.6238 44.6552C40.9273 44.6552 42.9511 47.1673 42.7427 50.7113L35.3769 50.7113C35.4662 52.1318 36.5673 52.7748 37.6685 52.7748C38.8292 52.7748 39.5583 52.3561 39.9006 51.7729L42.6981 51.7879ZM35.4215 48.8571L39.722 48.8571C39.6625 47.601 38.7994 46.973 37.6387 46.973C36.5376 46.973 35.5852 47.5412 35.4215 48.8571ZM53.1889 48.5879L50.3616 48.5879C50.0937 47.4215 49.3646 47.0178 48.4717 47.0178C47.3855 47.0178 46.3141 47.7655 46.3141 49.9038C46.3141 52.072 47.3855 52.7898 48.4717 52.7898C49.5878 52.7898 50.2872 52.2066 50.5104 51.2496L53.3377 51.2496C52.6532 54.2103 50.2723 55.1524 48.2783 55.1524C45.0046 55.1524 43.204 53.044 43.204 49.8589C43.204 46.6739 45.2724 44.6402 48.2783 44.6402C50.3318 44.6402 52.5937 45.5823 53.1889 48.5879ZM56.7156 46.2552C57.1471 45.5075 58.2334 44.715 59.7958 44.715C62.3404 44.715 63.144 46.2253 63.144 48.9318L63.144 54.9281L60.1083 54.9281L60.1083 49.7094C60.1083 48.2888 60.0637 47.1225 58.5905 47.1225C57.281 47.1225 56.7304 47.9748 56.7304 49.844L56.7304 54.958L53.6948 54.958L53.6948 41.5001L56.7304 41.5001L56.7156 46.2552ZM70.1378 47.8701C69.9295 47.1225 69.1557 46.9131 68.2033 46.9131C67.1468 46.9131 66.626 47.1673 66.626 47.6608C66.626 48.1243 66.9831 48.3935 67.8462 48.558L69.7063 48.887C72.0872 49.3206 73.233 50.0384 73.233 51.7879C73.233 54.0309 71.1795 55.1673 68.4266 55.1673C65.7778 55.1673 63.9029 54.0458 63.5606 51.6832L66.3879 51.6832C66.6558 52.6402 67.4296 52.9393 68.4712 52.9393C69.5575 52.9393 70.3164 52.6402 70.3164 52.0421C70.3164 51.6085 69.9295 51.3094 68.7539 51.115L66.9831 50.8159C65.0636 50.5019 63.7541 49.53 63.7541 47.7655C63.7541 45.7767 65.8373 44.6851 68.2926 44.6851C70.5545 44.6851 72.6229 45.5973 72.9949 47.8851L70.1378 47.8701ZM74.7954 42.2029L77.8311 42.2029L77.8311 44.9244L80.0185 44.9244L80.0185 47.0926L77.8311 47.0926L77.8311 51.5636C77.8311 52.5057 78.1287 52.6851 79.1405 52.6851L80.0036 52.6851L80.0036 54.8982L78.084 54.8982C75.6287 54.8982 74.7954 54.4197 74.7954 52.1019L74.7954 47.0926L73.233 47.0926L73.233 44.9244L74.7954 44.9244L74.7954 42.2029ZM86.9528 48.2888C86.9528 47.0926 86.3874 46.7038 85.2713 46.7038C84.2892 46.7038 83.6345 47.2122 83.5005 48.1692L80.6584 48.1692C80.8072 46.2851 82.5779 44.6253 85.5243 44.6253C88.3962 44.6253 90.0182 45.7916 89.9587 48.8272L89.9141 50.9954L89.9141 52.0421C89.9141 53.1337 89.9885 54.315 90.1373 54.9281L87.1463 54.9281L87.1016 53.7169C86.3576 54.7785 85.182 55.1673 83.7535 55.1673C81.8637 55.1673 80.3161 54.0608 80.3161 52.2365C80.3161 49.7842 83.069 48.9916 86.9231 48.6926L86.9528 48.2888ZM87.0421 50.487C84.9142 50.6963 83.5005 50.9057 83.5005 52.0122C83.5005 52.6552 84.1106 53.0888 84.8993 53.0888C86.1195 53.0888 87.0421 52.5655 87.0421 50.7262L87.0421 50.487ZM96.9228 47.8702C96.6549 47.8253 96.3573 47.7954 96.0895 47.8103C94.6163 47.8103 93.8574 48.3487 93.8574 49.9038L93.8574 54.9131L90.8069 54.9131L90.8069 44.9244L93.7384 44.9244L93.7384 46.8234C94.1997 45.6272 95.033 44.9244 96.4466 44.8645L96.6698 44.8645C96.7591 44.8645 96.8335 44.8645 96.9228 44.8795L96.9228 47.8702ZM103.649 47.8702C103.44 47.1225 102.667 46.9131 101.714 46.9131C100.658 46.9131 100.137 47.1673 100.137 47.6608C100.137 48.1244 100.494 48.3935 101.357 48.558L103.202 48.887C105.583 49.3206 106.729 50.0384 106.729 51.7879C106.729 54.0309 104.676 55.1673 101.923 55.1673C99.2888 55.1673 97.399 54.0458 97.0567 51.6832L99.884 51.6832C100.152 52.6402 100.926 52.9393 101.967 52.9393C103.054 52.9393 103.812 52.6402 103.812 52.0421C103.812 51.6085 103.426 51.3094 102.25 51.115L100.479 50.8159C98.5596 50.5019 97.265 49.53 97.265 47.7655C97.265 45.7767 99.3483 44.6851 101.804 44.6851C104.065 44.6851 106.134 45.5973 106.506 47.8851L103.649 47.8702Z" fill="white"/>
<path d="M106.67 57.5002L106.67 54.9282L114.884 54.9282L114.884 57.5002L106.67 57.5002Z" fill="#39C463"/>
</svg>
