<svg width="141" height="100" viewBox="0 0 141 100" fill="none" xmlns="http://www.w3.org/2000/svg">
<path d="M17.25 37H42.41V62.16H17.25V37Z" fill="white"/>
<path d="M28.9909 51.2569L24.6309 43.1219H26.6439L29.1599 48.2379C29.1599 48.3219 29.2439 48.4059 29.3279 48.4899C29.4119 48.5739 29.4119 48.6579 29.4959 48.8249L29.5799 48.9089V48.9929C29.6639 49.1609 29.6639 49.2449 29.7479 49.4129C29.8319 49.4969 29.8319 49.6649 29.9159 49.7479C29.9999 49.4959 30.1679 49.3279 30.2509 48.9929C30.3349 48.7409 30.5029 48.4899 30.6709 48.2379L33.1869 43.1219H35.0319L30.6719 51.3419V56.542H28.9949L28.9909 51.2569Z" fill="#080D10"/>
<path d="M52.4807 44.146C53.5407 44.146 54.4607 44.429 55.1687 44.996L54.4617 45.846C53.8247 45.422 53.1887 45.139 52.4117 45.139C51.2087 45.139 50.2897 45.776 49.7947 46.979C49.5117 47.686 49.3707 48.606 49.3707 49.809C49.3707 50.729 49.5107 51.507 49.7247 52.073C50.2907 53.417 51.2107 54.053 52.6247 54.053C53.4027 54.053 54.1107 53.841 54.7467 53.346L55.4537 54.266C54.5337 54.832 53.5537 55.116 52.4837 55.116C51.2107 55.116 50.1497 54.621 49.3007 53.56C48.4507 52.56 48.0977 51.226 48.0977 49.6C48.0977 47.974 48.5217 46.7 49.3707 45.64C50.1487 44.72 51.2107 44.154 52.4837 44.154L52.4807 44.146ZM56.5127 51.149C56.5127 49.876 56.7957 48.885 57.4327 48.179C58.0697 47.473 58.8477 47.047 59.8377 47.047C60.9697 47.047 61.8877 47.471 62.5257 48.391C63.0207 49.098 63.2327 50.089 63.2327 51.291C63.2327 52.706 62.8087 53.838 62.0297 54.545C61.4439 55.0595 60.6872 55.337 59.9077 55.323C58.8477 55.323 58.0677 54.969 57.4317 54.191C56.7947 53.484 56.5127 52.423 56.5127 51.149ZM61.4647 49.099C61.1107 48.462 60.6147 48.099 59.8377 48.099C59.0607 48.099 58.5647 48.382 58.2107 48.949C57.9277 49.373 57.8567 50.081 57.8567 50.999C57.8567 52.202 57.9967 53.049 58.3517 53.546C58.7067 54.043 59.2017 54.324 59.9077 54.324C60.7577 54.324 61.3227 53.9 61.6057 53.121C61.7457 52.697 61.8177 52.121 61.8177 51.423C61.8877 50.363 61.7477 49.583 61.4637 49.089L61.4647 49.099ZM65.4947 49.239C65.4947 48.461 65.4247 47.824 65.2117 47.339L66.4147 47.056C66.6267 47.41 66.6977 47.834 66.6977 48.188V48.258C66.9807 47.975 67.2637 47.692 67.6977 47.48C68.1927 47.197 68.6177 47.056 69.0417 47.056C69.6787 47.056 70.2447 47.339 70.5977 47.834C70.6677 47.974 70.8097 48.188 70.8807 48.329C71.7307 47.479 72.5077 47.056 73.3567 47.056C73.9227 47.056 74.4167 47.268 74.7717 47.622C75.1257 48.046 75.3377 48.542 75.3377 49.108V54.978H74.0457V49.178C74.0457 48.4 73.6917 48.046 73.0457 48.046C72.6917 48.046 72.2677 48.186 71.9137 48.47C71.7737 48.61 71.4897 48.824 71.1357 49.107L70.9957 49.247V54.977H69.6517V49.451C69.6517 48.956 69.5817 48.601 69.4397 48.451C69.2277 48.239 69.0157 48.168 68.6617 48.168C68.0957 48.168 67.4587 48.522 66.6817 49.228V55.028H65.4957L65.4947 49.239ZM77.5217 43.863L78.7947 43.58C78.9347 44.146 79.0067 44.783 79.0067 45.56V48.177C79.7137 47.47 80.4927 47.117 81.2707 47.117C82.1907 47.117 82.9687 47.471 83.4637 48.177C84.0297 48.884 84.3137 49.875 84.3137 51.077C84.3137 52.35 84.0307 53.341 83.4637 54.119C82.8967 54.897 82.1197 55.251 81.1997 55.251C80.7813 55.2588 80.3677 55.1615 79.9967 54.968C79.5727 54.756 79.2897 54.544 79.0767 54.261L78.8647 55.111H77.6617C77.8017 54.757 77.8737 54.111 77.8737 53.131V45.701C77.8037 44.851 77.7337 44.215 77.5197 43.861L77.5217 43.863ZM79.5717 48.663C79.3597 48.803 79.1477 49.017 79.0057 49.229V53.281C79.5007 53.918 80.1377 54.201 80.9057 54.201C81.5427 54.201 82.0377 53.989 82.3207 53.494C82.6747 52.928 82.8867 52.15 82.8867 51.018C82.8867 50.018 82.7467 49.32 82.3917 48.896C82.1087 48.472 81.6137 48.259 80.9057 48.259C80.4817 48.189 79.9857 48.329 79.5617 48.683L79.5717 48.663ZM86.1517 44.863C86.1517 44.58 86.2217 44.368 86.4347 44.156C86.6477 43.944 86.8587 43.873 87.1417 43.873C87.4247 43.873 87.6367 43.943 87.8487 44.156C88.0607 44.369 88.1317 44.58 88.1317 44.863C88.1317 45.146 88.0617 45.358 87.8487 45.57C87.6357 45.782 87.4247 45.853 87.1417 45.853C86.8587 45.853 86.6467 45.783 86.4347 45.57C86.2227 45.357 86.1517 45.146 86.1517 44.863ZM86.4457 55.041V47.261L87.7187 47.049V55.043L86.4457 55.041ZM90.4677 49.239C90.4677 48.673 90.4677 48.319 90.3977 48.179C90.3977 47.967 90.2577 47.755 90.1147 47.401L91.3177 47.047C91.5112 47.418 91.6085 47.8316 91.6007 48.25C92.3787 47.472 93.2277 47.047 94.0767 47.047C94.5007 47.047 94.8547 47.117 95.2087 47.33C95.5627 47.543 95.8457 47.825 95.9867 48.18C96.1267 48.463 96.1987 48.746 96.1987 49.1V55.042H94.9957V49.737C94.9957 49.1 94.9257 48.677 94.7127 48.464C94.6024 48.3507 94.4703 48.2609 94.3244 48.2C94.1785 48.1392 94.0217 48.1085 93.8637 48.11C93.5807 48.11 93.1567 48.25 92.7317 48.464C92.3386 48.6648 91.9804 48.9275 91.6707 49.242V55.042H90.4677V49.239ZM99.0277 48.956L98.3907 48.106C99.4507 47.399 100.513 47.046 101.645 47.046C102.777 47.046 103.485 47.47 103.838 48.249C103.978 48.532 103.978 48.956 103.978 49.593V50.017L103.908 52.564V52.918C103.908 53.342 103.908 53.625 103.978 53.838C104.048 54.121 104.261 54.333 104.544 54.475L103.907 55.325C103.341 55.113 102.987 54.759 102.847 54.193C102.14 54.9 101.361 55.253 100.583 55.253C99.8047 55.253 99.1677 55.041 98.6827 54.616C98.2587 54.262 98.0457 53.696 98.0457 52.989C98.027 52.5841 98.1152 52.1814 98.3015 51.8214C98.4877 51.4614 98.7654 51.1567 99.1067 50.938C99.8137 50.443 100.875 50.231 102.149 50.231H102.715V49.665C102.715 49.028 102.645 48.605 102.432 48.462C102.298 48.317 102.133 48.2038 101.949 48.1304C101.766 48.0571 101.569 48.0255 101.372 48.038C100.948 48.038 100.452 48.178 99.8857 48.392L99.0357 48.958L99.0277 48.956ZM102.778 53.13L102.848 51.08H102.211C101.079 51.08 100.371 51.292 99.9467 51.717C99.6637 52 99.5227 52.424 99.5227 52.99C99.5227 53.91 99.9467 54.405 100.867 54.405C101.268 54.382 101.656 54.2518 101.99 54.0279C102.325 53.804 102.593 53.4946 102.767 53.132L102.778 53.13ZM108.012 47.258H109.992L109.638 48.258H108.011V53.281C108.011 53.705 108.081 53.988 108.223 54.201C108.363 54.341 108.647 54.484 109.001 54.484C109.284 54.484 109.567 54.414 109.779 54.344L109.919 55.122C109.495 55.334 109.069 55.405 108.575 55.405C107.372 55.405 106.807 54.839 106.807 53.637V48.261H105.746V47.261H106.746V47.121C106.746 46.981 106.816 46.414 106.886 45.494V45.281L108.159 44.998C108.019 45.848 108.019 46.625 108.019 47.262L108.012 47.258ZM111.266 51.148C111.266 49.875 111.549 48.884 112.186 48.178C112.752 47.471 113.601 47.046 114.591 47.046C115.723 47.046 116.641 47.47 117.279 48.39C117.774 49.097 117.986 50.088 117.986 51.29C117.986 52.705 117.562 53.837 116.783 54.544C116.197 55.0585 115.44 55.336 114.661 55.322C113.601 55.322 112.821 54.968 112.185 54.19C111.619 53.483 111.266 52.422 111.266 51.148ZM116.289 49.098C115.935 48.461 115.439 48.098 114.662 48.098C113.885 48.098 113.389 48.381 113.035 48.948C112.752 49.372 112.681 50.08 112.681 50.998C112.681 52.201 112.821 53.048 113.176 53.545C113.531 54.042 114.026 54.323 114.732 54.323C115.582 54.323 116.147 53.899 116.43 53.12C116.57 52.696 116.642 52.12 116.642 51.422C116.642 50.362 116.502 49.582 116.288 49.088L116.289 49.098ZM120.319 49.096C120.319 48.389 120.249 47.823 120.036 47.398L121.239 47.044C121.432 47.415 121.529 47.8286 121.522 48.247V48.387C122.159 47.537 122.866 47.114 123.715 47.114C123.855 47.114 123.998 47.114 124.139 47.184L123.644 48.528C123.504 48.458 123.361 48.458 123.29 48.458C123.007 48.458 122.653 48.528 122.37 48.741C122.087 48.954 121.804 49.165 121.663 49.448C121.57 49.7213 121.522 50.0081 121.522 50.297V55.177H120.319V49.096Z" fill="white"/>
</svg>
